<?xml version="1.0" encoding="utf-8"?>
<!-- Generator: Adobe Illustrator 16.0.0, SVG Export Plug-In . SVG Version: 6.00 Build 0)  -->
<!DOCTYPE svg PUBLIC "-//W3C//DTD SVG 1.1//EN" "http://www.w3.org/Graphics/SVG/1.1/DTD/svg11.dtd">
<svg version="1.1" id="Layer_1" xmlns="http://www.w3.org/2000/svg" xmlns:xlink="http://www.w3.org/1999/xlink" x="0px" y="0px"
	 width="841.889px" height="595.281px" viewBox="0 0 841.889 595.281" enable-background="new 0 0 841.889 595.281"
	 xml:space="preserve">
<title>Asset 6</title>
<g id="Layer_2">
	<g id="Layer_1-2">
		<path fill="#00D3EF" d="M678.312,400.165H658.41c-1.708,0-3.092,1.385-3.092,3.092l0,0v52.612
			c0,12.515,7.828,14.404,22.771,13.963c3.956-0.108,7.251,3.011,7.359,6.967c0.002,0.066,0.003,0.132,0.003,0.198v17.325
			c0.001,3.733-2.856,6.847-6.576,7.165c-42.232,3.338-57.962-10.699-57.962-45.618v-52.612c0-1.697-1.369-3.078-3.067-3.092
			h-12.981c-3.943,0-7.141-3.197-7.141-7.141c0-0.008,0-0.017,0-0.024v-18.92c-0.014-3.943,3.173-7.151,7.116-7.165
			c0.008,0,0.017,0,0.024,0h12.981c1.698-0.014,3.067-1.395,3.067-3.093v-19.631c0.004-2.605,1.705-4.904,4.196-5.669l25.619-7.778
			c1.881-0.569,3.866,0.494,4.436,2.375c0.103,0.336,0.153,0.685,0.153,1.036v29.594c0,1.708,1.384,3.092,3.092,3.092l0,0h19.901
			c3.943,0,7.141,3.197,7.141,7.142c0,0.008,0,0.016,0,0.024v18.846c0.095,3.942-3.024,7.216-6.967,7.311
			C678.427,400.165,678.369,400.165,678.312,400.165z"/>
		<path fill="#00D3EF" d="M412.724,417.539v74.329c-0.014,4.277-3.478,7.741-7.754,7.754h-18.896c-4.282,0-7.754-3.472-7.754-7.754
			l0,0v-71.949c0-15.999-8.27-25.324-22.404-25.324c-15.729,0-24.81,10.675-24.81,30.134v67.14c0,4.282-3.472,7.754-7.754,7.754l0,0
			h-18.871c-4.282,0-7.754-3.472-7.754-7.754l0,0v-71.949c0-15.999-8.27-25.324-22.404-25.324
			c-15.215,0-25.079,10.675-25.079,30.134v67.14c0,4.282-3.472,7.754-7.755,7.754l0,0h-18.895c-4.277-0.013-7.741-3.477-7.755-7.754
			V376.534c0-5.598,4.538-10.135,10.135-10.135h14.159c5.584,0,10.11,4.526,10.11,10.11c0,0.008,0,0.016,0,0.024v2.454
			c-0.017,0.284,0.199,0.527,0.483,0.545c0.192,0.011,0.375-0.086,0.474-0.251c8-11.067,19.975-16.49,36.121-16.49
			c15.509,0,27.386,5.815,35.165,17.472c0.447,0.631,1.32,0.779,1.95,0.332c0.129-0.091,0.241-0.203,0.332-0.332
			c8.81-11.705,21.717-17.545,38.551-17.545C392.994,362.595,412.724,384.19,412.724,417.539z"/>
		<path fill="#00D3EF" d="M550.781,366.326h16.956c4.812,0,8.712,3.899,8.712,8.711l0,0v115.898
			c0.014,4.812-3.876,8.723-8.688,8.736c-0.008,0-0.016,0-0.024,0h-16.956c-4.825,0-8.736-3.911-8.736-8.736v-0.245
			c0.021-1.423-1.116-2.593-2.539-2.614c-0.693-0.01-1.361,0.261-1.854,0.749c-9.815,9.815-22.895,14.576-39.066,14.576
			c-17.498,0.188-34.222-7.204-45.863-20.27c-25.256-28.548-25.256-71.448,0-99.997c12.785-13.595,27.999-20.539,45.863-20.539
			c16.81,0,30.159,5.202,40.27,15.778c0.69,0.746,1.855,0.79,2.601,0.099c0.376-0.348,0.589-0.837,0.589-1.35v-2.086
			c0-4.812,3.9-8.711,8.712-8.711C550.765,366.326,550.773,366.326,550.781,366.326z M503.642,470.593
			c9.861,0.332,19.42-3.435,26.404-10.404c7.152-7.214,11.007-17.063,10.649-27.214c0.429-10.1-3.441-19.907-10.649-26.993
			c-14.731-14.195-38.053-14.195-52.784,0c-7.031,7.185-10.795,16.947-10.404,26.993c-0.327,10.093,3.423,19.893,10.404,27.188
			C484.238,467.134,493.785,470.908,503.642,470.593z"/>
		<path fill="#00D3EF" d="M816.222,366.326h16.956c4.812,0,8.711,3.899,8.711,8.711v115.898c0.014,4.812-3.875,8.723-8.687,8.736
			c-0.008,0-0.017,0-0.024,0h-16.956c-4.812,0-8.712-3.9-8.712-8.712c0-0.008,0-0.017,0-0.024v-0.245
			c-0.012-1.437-1.186-2.592-2.622-2.58c-0.659,0.005-1.292,0.261-1.771,0.715c-9.815,9.815-22.92,14.576-39.091,14.576
			c-17.497,0.184-34.22-7.207-45.863-20.27c-25.224-28.561-25.224-71.437,0-99.997c12.81-13.595,27.999-20.539,45.863-20.539
			c16.834,0,30.184,5.202,40.269,15.778c0.711,0.746,1.892,0.774,2.637,0.063c0.36-0.344,0.568-0.816,0.578-1.314v-2.086
			C807.51,370.225,811.41,366.326,816.222,366.326z M770.53,470.593c9.86,0.323,19.415-3.442,26.404-10.404
			c7.126-7.226,10.953-17.073,10.576-27.214c0.409-10.102-3.468-19.904-10.675-26.993c-14.739-14.198-38.068-14.198-52.808,0
			c-6.986,7.207-10.711,16.964-10.307,26.993c-0.316,10.091,3.433,19.887,10.404,27.188
			C751.111,467.135,760.666,470.909,770.53,470.593z"/>
		<path fill="#00D3EF" d="M181.908,470.544l-15.41-8.859c-3.874-2.307-8.777-1.943-12.27,0.908
			c-7.209,5.796-16.28,8.771-25.521,8.368c-13.104,0-22.871-3.436-29.447-10.159c-0.714-0.739-1.697-1.155-2.724-1.153H62.501
			c-1.165-0.006-2.115,0.934-2.121,2.1c-0.002,0.299,0.061,0.596,0.183,0.869c3.347,7.314,7.985,13.964,13.692,19.632
			c13.546,13.496,31.46,20.27,53.986,20.27c23.606,0,42.085-8,55.213-23.804c1.888-2.377,1.49-5.835-0.888-7.723
			C182.359,470.827,182.139,470.677,181.908,470.544z"/>
		<path fill="#00D3EF" d="M174.572,380.215c-12.735-13.791-29.275-20.539-49.078-20.539c-20.858,0-38.232,6.748-51.532,20.539
			c-13.285,13.514-20.497,31.854-19.975,50.796c-0.007,3.387,0.19,6.771,0.589,10.135c0.387,2.318,2.362,4.036,4.711,4.099h33.251
			h0.245h0.271h92.61c4.13,0.023,7.608-3.084,8.049-7.19c2.187-21.159-4.779-42.244-19.141-57.937V380.215z M156.584,418.251H92.513
			c-1.071-0.003-1.938-0.872-1.935-1.942c0-0.173,0.023-0.346,0.069-0.512c4.662-15.779,17.178-24.81,34.846-24.81
			c15.264,0,28.294,8.099,33.005,24.785c0.343,0.971-0.167,2.036-1.139,2.379C157.111,418.238,156.847,418.272,156.584,418.251z"/>
		<g id="MUs0Be.tif">
			<path fill="#00D3EF" d="M40.71,431.796c0-1.079,0-2.135,0-3.214c0.313-3.739-0.087-7.503-1.178-11.092
				c-3.215-7.779-9.325-11.436-17.423-12.27c-2.621-0.185-5.25-0.233-7.877-0.147c-3.533,0-7.067,0-10.601,0
				c-1.697-0.285-3.305,0.86-3.59,2.558c-0.025,0.152-0.039,0.307-0.042,0.461c-0.037,0.489-0.037,0.981,0,1.472v13.595
				c-0.001,1.882,0.147,3.761,0.441,5.62c1.449,8.826,8.728,15.528,17.644,16.244c6.38,0.418,12.736,0.295,19.116,0.271
				c1.576,0.118,3.008-0.919,3.387-2.454c0.138-0.554,0.203-1.123,0.196-1.693C40.784,438.127,40.735,434.962,40.71,431.796z"/>
			<path fill="#00D3EF" d="M40.809,430.863v0.319c0,2.847,0,0,0,10.11c0.007,0.57-0.059,1.14-0.196,1.693
				c-0.379,1.534-1.811,2.571-3.387,2.454c-6.38,0-12.735,0.146-19.116-0.271c-8.915-0.717-16.194-7.418-17.644-16.245
				C0.156,427.018,0,425.09,0,423.158V409.49c-0.037-0.49-0.037-0.982,0-1.473c0.028-1.721,1.446-3.093,3.168-3.064
				c0.105,0.002,0.211,0.01,0.316,0.021c3.533,0,7.067,0,10.601,0c2.627-0.086,5.256-0.036,7.877,0.147
				c8.099,0.859,14.209,4.516,17.423,12.27c0.795,1.893,1.243,3.912,1.325,5.963C40.833,426.275,40.76,430.373,40.809,430.863z"/>
		</g>
		<g id="Group_250">
			<path id="Path_80" fill="#00D3EF" d="M358.075,116.026v5.668c0,6.552-0.466,13.546,2.086,19.632
				c5.644,13.767,16.441,20.27,30.698,21.766c4.613,0.491,9.251,0.246,13.889,0.295c6.201,0,12.417,0,18.65,0
				c3.015,0.353,5.745-1.806,6.098-4.821c0.022-0.191,0.035-0.385,0.037-0.577c0.119-0.862,0.177-1.731,0.172-2.602v-24.244
				c-0.009-3.336-0.263-6.666-0.761-9.963c-2.522-15.561-15.311-27.407-31.018-28.735c-11.214-0.786-22.478-0.564-33.692-0.564
				c-2.771-0.226-5.298,1.594-5.963,4.294c-0.247,1.003-0.354,2.035-0.319,3.067c0,5.611,0,11.23,0,16.858"/>
		</g>
		<g id="Group_250-2">
			<path id="Path_80-2" fill="#00D3EF" d="M358.075,196.784v5.693c0,6.527-0.466,13.521,2.086,19.631
				c5.644,13.767,16.441,20.294,30.698,21.767c4.622,0.331,9.258,0.43,13.889,0.295c6.209,0,12.417,0,18.65,0
				c3.015,0.353,5.745-1.807,6.098-4.821c0.022-0.192,0.035-0.385,0.037-0.578c0.118-0.854,0.176-1.714,0.172-2.576v-24.22
				c-0.008-3.336-0.262-6.666-0.761-9.963c-2.499-15.614-15.333-27.506-31.091-28.81c-11.215-0.761-22.453-0.54-33.692-0.466
				c-2.724-0.195-5.199,1.579-5.89,4.221c-0.24,0.971-0.348,1.97-0.319,2.969c0,5.611,0,11.231,0,16.858"/>
		</g>
		<g id="Group_250-3">
			<path id="Path_80-3" fill="#00D3EF" d="M510.414,160.785c0-5.611,0.041-11.23,0.123-16.858c0.03-0.999-0.077-1.998-0.319-2.969
				c-0.704-2.679-3.227-4.467-5.987-4.245c-11.215,0-22.453-0.295-33.668,0.49c-15.779,1.269-28.648,13.155-31.165,28.784
				c-0.498,3.307-0.752,6.645-0.761,9.988v24.244c-0.004,0.87,0.053,1.739,0.172,2.602c0.034,3.035,2.522,5.469,5.558,5.436
				c0.193-0.002,0.386-0.015,0.577-0.037c6.233,0,12.441,0,18.65,0c4.632,0.135,9.267,0.036,13.889-0.295
				c14.258-1.496,25.03-7.999,30.699-21.766c2.453-6.184,2.012-13.178,2.085-19.632v-5.668"/>
		</g>
		<g id="Group_250-4">
			<path id="Path_80-4" fill="#00D3EF" d="M510.414,241.568c0-5.619,0.123-11.239,0.123-16.858c0.029-1.008-0.078-2.015-0.319-2.994
				c-0.705-2.674-3.231-4.455-5.987-4.221c-11.215,0-22.453-0.294-33.668,0.491c-15.751,1.301-28.582,13.181-31.091,28.784
				c-0.499,3.298-0.754,6.628-0.761,9.963v24.343c-0.004,0.87,0.054,1.739,0.172,2.602c0.031,3.021,2.508,5.446,5.529,5.414
				c0.202-0.002,0.404-0.016,0.605-0.04c6.232,0,12.449,0,18.649,0c4.638,0,9.251,0.196,13.89-0.27
				c14.257-1.497,25.029-8.024,30.698-21.791c2.454-6.184,2.012-13.178,2.086-19.632L510.414,241.568"/>
		</g>
	</g>
</g>
</svg>
